<svg xmlns="http://www.w3.org/2000/svg" width="146" height="35" viewBox="0 0 146 35">
    <g fill="#000" fill-rule="nonzero">
        <path d="M2.931.151C1.65.566.55 1.665.16 2.931 0 3.433 0 3.704 0 17.324 0 30.897 0 31.215.16 31.71c.39 1.274 1.505 2.39 2.771 2.78.502.16.765.16 11.255.16H24.93V29.55h-3.816l-1.25-1.736c-.685-.948-1.306-1.792-1.378-1.864-.12-.127-.223 0-1.474 1.737L15.66 29.55h-2.78c-2.214 0-2.763-.023-2.708-.095.215-.27 5.297-7.185 5.369-7.304.08-.112-.319-.693-2.453-3.592a322.097 322.097 0 0 1-2.605-3.569c-.048-.071.518-.095 2.716-.095l2.772.008 1.195 1.656c.653.916 1.218 1.65 1.242 1.633.032-.016.582-.764 1.235-1.664l1.179-1.633H27.448l.223.454c.12.255.27.541.334.637l.112.183.462-.31c3.114-2.111 7.128-1.442 9.383 1.56.254.343.493.654.525.702.04.04.056-3.274.048-7.368l-.024-7.447-.215-.55c-.502-1.298-1.45-2.198-2.764-2.597C35.038 0 34.712 0 19.204.008 4.126.008 3.36.016 2.93.151zM44.445 13.381v.877h.956V12.505h-.956zM88.516 14.743l-.422.247v2.533h-2.39v.956h2.39v4.683c0 3.25.032 4.827.095 5.154.128.63.478 1.139.98 1.394.35.175.486.199 1.275.199.477 0 .971-.032 1.099-.064.199-.056.215-.087.215-.502v-.446l-.829.056c-1.027.072-1.441-.064-1.688-.565-.144-.295-.152-.558-.175-5.114l-.024-4.795h2.556v-.956H89.05V16.01c0-.837-.024-1.514-.056-1.514-.04 0-.255.112-.478.247zM133.837 14.76l-.422.254v2.51H131.026v.955H133.415v4.556c0 2.804.032 4.763.088 5.082.223 1.37.987 1.911 2.573 1.808 1.003-.064 1.003-.064 1.003-.582v-.422l-.948.016c-1.083.016-1.274-.056-1.56-.63-.152-.294-.16-.493-.184-5.073l-.024-4.755h2.636v-.956h-2.628V16.01c0-.837-.024-1.514-.056-1.514-.04.008-.255.12-.478.263z"/>
        <path d="M23.935 18.2c-.502.677-1.33 1.8-1.848 2.485-.51.693-.924 1.29-.924 1.338 0 .08 3.346 4.652 3.616 4.939.152.151.152.04.152-4.923 0-2.787-.016-5.073-.04-5.073s-.454.557-.956 1.234zM80.91 17.364c-1.315.223-2.326.932-2.788 1.967-.263.582-.295 1.816-.064 2.43.398 1.067 1.362 1.688 3.584 2.325 2.135.614 2.637.885 3.003 1.617.183.375.2.494.16.94-.072.717-.32 1.25-.79 1.673-1.114 1.003-3.488 1.083-4.587.16-.502-.423-.884-1.347-.892-2.135v-.295h-.956v.414c0 .526.183 1.322.406 1.752.096.184.343.518.558.741.74.78 1.625 1.107 3.058 1.107.996 0 1.61-.135 2.358-.518 1.21-.605 1.928-1.959 1.8-3.377-.143-1.513-1.02-2.222-3.736-3.018-1.983-.582-2.66-.956-3.002-1.665-.192-.39-.223-1.14-.072-1.577.414-1.219 2.047-1.92 3.664-1.577 1.25.263 1.975 1.13 1.975 2.35v.43h.956v-.502c0-.94-.398-1.904-.996-2.422-.82-.717-2.286-1.043-3.64-.82zM140.982 17.412c-1.227.263-2.262 1.043-2.636 2.007-.255.637-.263 1.872-.016 2.421.255.566.55.9 1.067 1.25.565.383.956.534 2.716 1.052 2.421.71 2.955 1.147 2.94 2.406-.009 1.115-.67 1.983-1.793 2.35-.98.318-2.15.294-2.995-.072-.812-.35-1.354-1.187-1.418-2.207l-.04-.573h-.955l.04.693c.055.828.254 1.41.677 1.967.916 1.203 2.835 1.68 4.763 1.195a3.822 3.822 0 0 0 1.832-1.075c.59-.638.772-1.147.82-2.247.032-.836.024-.876-.215-1.37-.462-.931-1.17-1.362-3.393-2.03-1.625-.494-2.222-.757-2.7-1.203-.63-.574-.765-1.482-.35-2.35.413-.9 1.712-1.466 3.066-1.354 1.537.127 2.326.868 2.469 2.334l.048.501H145.84v-.35c0-1.338-.741-2.62-1.792-3.082-.845-.375-2.071-.478-3.067-.263zM71.479 17.436c-2.008.326-3.441 1.768-4.07 4.118-.2.724-.216.908-.216 2.381-.008 1.418.016 1.665.176 2.27.693 2.565 2.381 3.903 4.906 3.903 1.386 0 2.318-.342 3.122-1.147.263-.27.59-.685.725-.924.231-.398.566-1.306.693-1.856l.056-.223-.494.024-.494.024-.175.518c-.263.772-.494 1.179-.948 1.656-.653.693-1.354.972-2.477.972-1.219 0-2.063-.35-2.835-1.17-.797-.853-1.235-1.96-1.323-3.354l-.047-.733h8.889l-.048-1.099c-.056-1.274-.255-2.174-.661-3.019-.518-1.075-1.522-1.927-2.613-2.222-.518-.143-1.64-.2-2.166-.12zm1.672 1.003c1.593.335 2.573 1.76 2.78 4.038l.048.462h-7.885l.047-.302c.526-3.099 2.477-4.74 5.01-4.198zM114.92 17.444c-1.433.262-2.381.868-3.162 2.03-.454.686-.812 1.562-1.011 2.51-.2.94-.208 2.963 0 3.903.43 2.03 1.593 3.464 3.225 3.99.733.239 2.23.295 2.987.12 1.522-.359 2.597-1.474 3.147-3.266.238-.78.246-.765-.311-.765-.454 0-.478.008-.526.215-.032.128-.16.47-.287.773-.454 1.099-1.21 1.824-2.174 2.079-.581.151-1.617.151-2.159.008-1.776-.47-2.915-2.111-3.106-4.46l-.056-.686h8.865v-.908c0-2.764-1.155-4.787-3.074-5.376-.59-.183-1.8-.271-2.358-.167zm1.49.955c1.672.271 2.724 1.689 2.955 3.975l.056.565h-7.83v-.207c0-.111.072-.493.16-.836.5-1.951 1.544-3.114 3.106-3.449.637-.143.94-.151 1.553-.048zM51.223 17.571c-.947.255-1.847.9-2.39 1.712l-.326.486v-2.246h-.979l.055.295c.024.167.048 2.947.048 6.173v5.878h.956v-3.656c0-3.879.032-4.317.398-5.28.247-.67.757-1.387 1.259-1.777.613-.486 1.179-.685 2.055-.733.964-.056 1.664.144 2.214.622.438.39.637.74.86 1.569.168.581.175.828.207 4.93l.032 4.325h.948l-.024-4.524c-.032-4.245-.04-4.548-.191-5.074-.438-1.53-1.362-2.453-2.724-2.74-.582-.12-1.88-.103-2.398.04zM96.696 17.523c-1.075.191-2.023.829-2.66 1.784l-.207.311V17.523h-.98l.048 1.21c.032.662.056 3.442.056 6.174v4.962h.947l.024-4.006c.024-3.513.048-4.055.168-4.469.358-1.218 1.09-2.214 1.92-2.62 1.17-.574 2.54-.446 3.376.302.47.423.765.948.988 1.769.16.589.167.836.207 4.819l.032 4.205H101.547l.024-4.245.024-4.238.215-.581c.414-1.131 1.027-1.808 1.951-2.175.613-.239 1.856-.263 2.477-.047.518.183 1.211.804 1.45 1.29.422.876.422.884.454 5.591l.032 4.405h.956l-.024-4.484c-.032-4.293-.04-4.5-.207-5.098-.446-1.609-1.299-2.445-2.78-2.732-1.115-.207-2.183-.088-3.099.366-.565.28-1.378 1.084-1.648 1.641-.088.191-.192.35-.215.35-.024 0-.152-.214-.271-.485-.279-.574-.9-1.227-1.466-1.53-.717-.39-1.8-.533-2.724-.374zM125.29 17.627c-.955.326-1.767.932-2.245 1.664l-.263.407-.024-1.092-.024-1.083h-.972l.048.534c.032.303.056 3.074.056 6.173v5.64h.948l.024-3.968.023-3.958.215-.637c.654-1.928 1.896-2.908 3.696-2.908 1.187 0 2.111.502 2.533 1.378.438.892.462 1.171.502 5.807l.04 4.285h.956l-.032-4.484c-.032-4.285-.04-4.5-.207-5.098-.43-1.553-1.323-2.461-2.708-2.756-.733-.151-1.976-.111-2.565.096zM44.445 23.696v6.173h.956V17.523h-.956zM56.791 17.555c0 .016 1.147 2.788 2.54 6.15l2.55 6.124.342.024.343.016 2.485-6.03c1.37-3.32 2.509-6.1 2.54-6.18.04-.12-.007-.136-.461-.136h-.51l-2.182 5.337c-1.458 3.568-2.207 5.297-2.247 5.217-.047-.08-4.094-9.829-4.34-10.458-.024-.064-.216-.096-.55-.096-.279 0-.51.016-.51.032zM31.486 19.26c-.74.262-1.187.708-1.593 1.569-.207.438-.223.557-.223 1.394 0 .86.016.947.247 1.441.47.996 1.203 1.561 2.103 1.641 1.25.12 2.35-.788 2.716-2.238.055-.223.08-.661.055-1.083-.095-1.57-1.067-2.732-2.389-2.836-.366-.024-.613 0-.916.112zM38.193 26.747c-.35.557-1.354 1.537-2.016 1.96-1.816 1.178-3.823 1.44-5.814.756-.382-.128-.701-.231-.709-.231-.016 0-.024 1.219-.024 2.708v2.708h2.7c2.47 0 2.74-.016 3.202-.16 1.322-.413 2.27-1.297 2.764-2.596.207-.541.207-.573.24-3.042.015-1.362 0-2.486-.04-2.486-.033 0-.168.168-.303.383z"/>
    </g>
</svg>
